<svg width="332" height="127" viewBox="0 0 332 127" fill="none" xmlns="http://www.w3.org/2000/svg">
<path d="M165.5 126L0 85.1348L165.5 56L331 85.1348L165.5 126Z" fill="black"/>
<path d="M0 68.7009V44.0181L165.5 15L331 44.0181V68.7009V86.2986L165.5 127L0 86.2986V68.7009Z" fill="#1E1E1E"/>
<path d="M331 44.0181L166 15V127L331 86.2986V68.7009V44.0181Z" fill="black"/>
<path d="M165.5 85L0 44.1348L165.5 15L331 44.1348L165.5 85Z" fill="#515151"/>
<path d="M224 9.67742C224 8.81201 223.59 8.06095 223.005 7.44286C222.425 6.82937 221.618 6.28576 220.666 5.79867C218.757 4.82304 216.062 3.97369 212.814 3.27127C206.301 1.86288 197.352 1 187.5 1C177.648 1 168.699 1.86288 162.186 3.27127C158.938 3.97369 156.243 4.82304 154.334 5.79867C153.382 6.28576 152.575 6.82937 151.995 7.44286C151.41 8.06095 151 8.81201 151 9.67742V22.3226C151 23.188 151.41 23.939 151.995 24.5571C152.575 25.1706 153.382 25.7142 154.334 26.2013C156.243 27.177 158.938 28.0263 162.186 28.7287C168.699 30.1371 177.648 31 187.5 31C197.352 31 206.301 30.1371 212.814 28.7287C216.062 28.0263 218.757 27.177 220.666 26.2013C221.618 25.7142 222.425 25.1706 223.005 24.5571C223.59 23.939 224 23.188 224 22.3226V9.67742Z" fill="black" stroke="black" stroke-width="2"/>
<path d="M187.5 18.3548C197.352 18.3548 206.301 17.492 212.814 16.0836C216.062 15.3812 218.757 14.5318 220.665 13.5562C221.618 13.0691 222.425 12.5255 223.005 11.912C223.59 11.2939 224 10.5428 224 9.67742C224 8.81201 223.59 8.06095 223.005 7.44286C222.425 6.82936 221.618 6.28575 220.665 5.79866C218.757 4.82303 216.062 3.97368 212.814 3.27126C206.301 1.86288 197.352 1 187.5 1C177.648 1 168.699 1.86288 162.186 3.27126C158.938 3.97368 156.243 4.82303 154.335 5.79866C153.382 6.28575 152.575 6.82936 151.995 7.44286C151.41 8.06095 151 8.81201 151 9.67742C151 10.5428 151.41 11.2939 151.995 11.912C152.575 12.5255 153.382 13.0691 154.335 13.5562C156.243 14.5318 158.938 15.3812 162.186 16.0836C168.699 17.492 177.648 18.3548 187.5 18.3548Z" fill="#59C3FF" stroke="black" stroke-width="2"/>
<path d="M157 19.6774C157 18.8169 156.598 18.0674 156.02 17.448C155.447 16.8336 154.65 16.2891 153.71 15.8013C151.826 14.8245 149.166 13.9746 145.963 13.2719C139.54 11.863 130.715 11 121 11C111.285 11 102.46 11.863 96.0369 13.2719C92.8336 13.9746 90.1736 14.8245 88.2901 15.8013C87.3495 16.2891 86.553 16.8336 85.9798 17.448C85.402 18.0674 85 18.8169 85 19.6774V32.3226C85 33.1831 85.402 33.9326 85.9798 34.552C86.553 35.1664 87.3495 35.7109 88.2901 36.1987C90.1736 37.1755 92.8336 38.0254 96.0369 38.7281C102.46 40.137 111.285 41 121 41C130.715 41 139.54 40.137 145.963 38.7281C149.166 38.0254 151.826 37.1755 153.71 36.1987C154.65 35.7109 155.447 35.1664 156.02 34.552C156.598 33.9326 157 33.1831 157 32.3226V19.6774Z" fill="black" stroke="black" stroke-width="2"/>
<path d="M121 28.3548C130.715 28.3548 139.54 27.4919 145.963 26.083C149.166 25.3803 151.826 24.5304 153.71 23.5535C154.65 23.0657 155.447 22.5212 156.02 21.9068C156.598 21.2874 157 20.5379 157 19.6774C157 18.8169 156.598 18.0674 156.02 17.448C155.447 16.8336 154.65 16.2891 153.71 15.8013C151.826 14.8245 149.166 13.9746 145.963 13.2719C139.54 11.863 130.715 11 121 11C111.285 11 102.46 11.863 96.037 13.2719C92.8337 13.9746 90.1736 14.8245 88.2901 15.8013C87.3495 16.2891 86.553 16.8336 85.9799 17.448C85.402 18.0674 85 18.8169 85 19.6774C85 20.5379 85.402 21.2874 85.9799 21.9068C86.553 22.5212 87.3495 23.0657 88.2901 23.5535C90.1736 24.5304 92.8337 25.3803 96.037 26.083C102.46 27.4919 111.285 28.3548 121 28.3548Z" fill="white" stroke="black" stroke-width="2"/>
<path d="M87 26.9516C87 26.0794 86.6009 25.3137 86.0171 24.6746C85.4383 24.0411 84.6323 23.478 83.6783 22.9728C81.7683 21.9613 79.0704 21.081 75.8209 20.3532C69.3059 18.8938 60.3541 18 50.5 18C40.6459 18 31.6941 18.8938 25.1791 20.3532C21.9296 21.081 19.2317 21.9613 17.3217 22.9728C16.3677 23.478 15.5617 24.0411 14.9829 24.6746C14.3991 25.3137 14 26.0794 14 26.9516V40.0484C14 40.9206 14.3991 41.6863 14.9829 42.3254C15.5617 42.9589 16.3677 43.522 17.3217 44.0272C19.2317 45.0387 21.9296 45.919 25.1791 46.6468C31.6941 48.1062 40.6459 49 50.5 49C60.3541 49 69.3059 48.1062 75.8209 46.6468C79.0704 45.919 81.7683 45.0387 83.6783 44.0272C84.6323 43.522 85.4383 42.9589 86.0171 42.3254C86.6009 41.6863 87 40.9206 87 40.0484V26.9516Z" fill="black" stroke="black" stroke-width="2"/>
<path d="M50.5 35.9032C60.354 35.9032 69.3058 35.0094 75.8209 33.5501C79.0703 32.8222 81.7683 31.9419 83.6782 30.9305C84.6323 30.4252 85.4383 29.8622 86.0171 29.2286C86.6009 28.5895 87 27.8239 87 26.9516C87 26.0793 86.6009 25.3137 86.0171 24.6746C85.4383 24.0411 84.6323 23.478 83.6782 22.9728C81.7683 21.9613 79.0703 21.081 75.8209 20.3532C69.3058 18.8938 60.354 18 50.5 18C40.646 18 31.6942 18.8938 25.1791 20.3532C21.9297 21.081 19.2317 21.9613 17.3218 22.9728C16.3677 23.478 15.5617 24.0411 14.9829 24.6746C14.3991 25.3137 14 26.0793 14 26.9516C14 27.8239 14.3991 28.5895 14.9829 29.2286C15.5617 29.8622 16.3677 30.4252 17.3218 30.9305C19.2317 31.9419 21.9297 32.8222 25.1791 33.5501C31.6942 35.0094 40.646 35.9032 50.5 35.9032Z" fill="#59C3FF" stroke="black" stroke-width="2"/>
<path d="M271 28.6774C271 27.8169 270.598 27.0674 270.02 26.448C269.447 25.8336 268.65 25.2891 267.71 24.8013C265.826 23.8245 263.166 22.9746 259.963 22.2719C253.54 20.863 244.715 20 235 20C225.285 20 216.46 20.863 210.037 22.2719C206.834 22.9746 204.174 23.8245 202.29 24.8013C201.35 25.2891 200.553 25.8336 199.98 26.448C199.402 27.0674 199 27.8169 199 28.6774V41.3226C199 42.1831 199.402 42.9326 199.98 43.552C200.553 44.1664 201.35 44.7109 202.29 45.1987C204.174 46.1755 206.834 47.0254 210.037 47.7281C216.46 49.137 225.285 50 235 50C244.715 50 253.54 49.137 259.963 47.7281C263.166 47.0254 265.826 46.1755 267.71 45.1987C268.65 44.7109 269.447 44.1664 270.02 43.552C270.598 42.9326 271 42.1831 271 41.3226V28.6774Z" fill="black" stroke="black" stroke-width="2"/>
<path d="M235 37.3548C244.715 37.3548 253.54 36.4919 259.963 35.083C263.166 34.3803 265.826 33.5304 267.71 32.5535C268.65 32.0657 269.447 31.5212 270.02 30.9068C270.598 30.2874 271 29.5379 271 28.6774C271 27.8169 270.598 27.0674 270.02 26.448C269.447 25.8336 268.65 25.2891 267.71 24.8013C265.826 23.8245 263.166 22.9746 259.963 22.2719C253.54 20.863 244.715 20 235 20C225.285 20 216.46 20.863 210.037 22.2719C206.834 22.9746 204.174 23.8245 202.29 24.8013C201.35 25.2891 200.553 25.8336 199.98 26.448C199.402 27.0674 199 27.8169 199 28.6774C199 29.5379 199.402 30.2874 199.98 30.9068C200.553 31.5212 201.35 32.0657 202.29 32.5535C204.174 33.5304 206.834 34.3803 210.037 35.083C216.46 36.4919 225.285 37.3548 235 37.3548Z" fill="white" stroke="black" stroke-width="2"/>
<path d="M203 35.6774C203 34.8219 202.606 34.074 202.035 33.4533C201.469 32.838 200.683 32.2926 199.754 31.804C197.895 30.826 195.271 29.9755 192.112 29.2725C185.779 27.8631 177.078 27 167.5 27C157.922 27 149.221 27.8631 142.888 29.2725C139.729 29.9755 137.105 30.826 135.246 31.804C134.317 32.2926 133.531 32.838 132.965 33.4533C132.394 34.074 132 34.8219 132 35.6774V48.3226C132 49.1781 132.394 49.926 132.965 50.5467C133.531 51.162 134.317 51.7074 135.246 52.196C137.105 53.174 139.729 54.0245 142.888 54.7274C149.221 56.1369 157.922 57 167.5 57C177.078 57 185.779 56.1369 192.112 54.7274C195.271 54.0245 197.895 53.174 199.754 52.196C200.683 51.7074 201.469 51.162 202.035 50.5467C202.606 49.926 203 49.1781 203 48.3226V35.6774Z" fill="black" stroke="black" stroke-width="2"/>
<path d="M167.5 44.3548C177.078 44.3548 185.779 43.4917 192.112 42.0823C195.271 41.3794 197.895 40.5289 199.754 39.5508C200.683 39.0623 201.469 38.5169 202.035 37.9016C202.606 37.2809 203 36.533 203 35.6774C203 34.8219 202.606 34.074 202.035 33.4533C201.469 32.838 200.683 32.2925 199.754 31.804C197.895 30.826 195.271 29.9755 192.112 29.2725C185.779 27.8631 177.078 27 167.5 27C157.922 27 149.221 27.8631 142.888 29.2725C139.729 29.9755 137.105 30.826 135.246 31.804C134.317 32.2925 133.531 32.838 132.965 33.4533C132.394 34.074 132 34.8219 132 35.6774C132 36.533 132.394 37.2809 132.965 37.9016C133.531 38.5169 134.317 39.0623 135.246 39.5508C137.105 40.5289 139.729 41.3794 142.888 42.0823C149.221 43.4917 157.922 44.3548 167.5 44.3548Z" fill="#59C3FF" stroke="black" stroke-width="2"/>
<path d="M134 41.9516C134 41.0794 133.601 40.3137 133.017 39.6746C132.438 39.0411 131.632 38.478 130.678 37.9728C128.768 36.9613 126.07 36.081 122.821 35.3532C116.306 33.8938 107.354 33 97.5 33C87.6459 33 78.6941 33.8938 72.1791 35.3532C68.9296 36.081 66.2317 36.9613 64.3217 37.9728C63.3677 38.478 62.5617 39.0411 61.9829 39.6746C61.3991 40.3137 61 41.0794 61 41.9516V55.0484C61 55.9206 61.3991 56.6863 61.9829 57.3254C62.5617 57.9589 63.3677 58.522 64.3217 59.0272C66.2317 60.0387 68.9296 60.919 72.1791 61.6468C78.6941 63.1062 87.6459 64 97.5 64C107.354 64 116.306 63.1062 122.821 61.6468C126.07 60.919 128.768 60.0387 130.678 59.0272C131.632 58.522 132.438 57.9589 133.017 57.3254C133.601 56.6863 134 55.9206 134 55.0484V41.9516Z" fill="black" stroke="black" stroke-width="2"/>
<path d="M97.5 50.9032C107.354 50.9032 116.306 50.0094 122.821 48.5501C126.07 47.8222 128.768 46.9419 130.678 45.9305C131.632 45.4252 132.438 44.8622 133.017 44.2286C133.601 43.5895 134 42.8239 134 41.9516C134 41.0793 133.601 40.3137 133.017 39.6746C132.438 39.0411 131.632 38.478 130.678 37.9728C128.768 36.9613 126.07 36.081 122.821 35.3532C116.306 33.8938 107.354 33 97.5 33C87.646 33 78.6942 33.8938 72.1791 35.3532C68.9297 36.081 66.2317 36.9613 64.3218 37.9728C63.3677 38.478 62.5617 39.0411 61.9829 39.6746C61.3991 40.3137 61 41.0793 61 41.9516C61 42.8239 61.3991 43.5895 61.9829 44.2286C62.5617 44.8622 63.3677 45.4252 64.3218 45.9305C66.2317 46.9419 68.9297 47.8222 72.1791 48.5501C78.6942 50.0094 87.646 50.9032 97.5 50.9032Z" fill="white" stroke="black" stroke-width="2"/>
<path d="M331 40.9516C331 40.0841 330.609 39.3201 330.032 38.6798C329.461 38.0455 328.665 37.4815 327.723 36.9755C325.837 35.9628 323.175 35.0819 319.97 34.3538C313.545 32.894 304.717 32 295 32C285.283 32 276.455 32.894 270.03 34.3538C266.825 35.0819 264.163 35.9628 262.277 36.9755C261.335 37.4815 260.539 38.0455 259.968 38.6798C259.391 39.3201 259 40.0841 259 40.9516V54.0484C259 54.9159 259.391 55.6799 259.968 56.3202C260.539 56.9545 261.335 57.5185 262.277 58.0245C264.163 59.0372 266.825 59.9181 270.03 60.6462C276.455 62.106 285.283 63 295 63C304.717 63 313.545 62.106 319.97 60.6462C323.175 59.9181 325.837 59.0372 327.723 58.0245C328.665 57.5185 329.461 56.9545 330.032 56.3202C330.609 55.6799 331 54.9159 331 54.0484V40.9516Z" fill="black" stroke="black" stroke-width="2"/>
<path d="M295 49.9032C304.717 49.9032 313.545 49.0093 319.97 47.5494C323.175 46.8213 325.837 45.9404 327.723 44.9277C328.665 44.4217 329.461 43.8578 330.032 43.2234C330.609 42.5831 331 41.8191 331 40.9516C331 40.0841 330.609 39.3201 330.032 38.6798C329.461 38.0455 328.665 37.4815 327.723 36.9755C325.837 35.9628 323.175 35.0819 319.97 34.3538C313.545 32.894 304.717 32 295 32C285.283 32 276.455 32.894 270.03 34.3538C266.825 35.0819 264.163 35.9628 262.277 36.9755C261.335 37.4815 260.539 38.0455 259.968 38.6798C259.391 39.3201 259 40.0841 259 40.9516C259 41.8191 259.391 42.5831 259.968 43.2234C260.539 43.8578 261.335 44.4217 262.277 44.9277C264.163 45.9404 266.825 46.8213 270.03 47.5494C276.455 49.0093 285.283 49.9032 295 49.9032Z" fill="white" stroke="black" stroke-width="2"/>
<path d="M259 47.9516C259 47.0794 258.601 46.3137 258.017 45.6746C257.438 45.0411 256.632 44.478 255.678 43.9728C253.768 42.9613 251.07 42.081 247.821 41.3532C241.306 39.8938 232.354 39 222.5 39C212.646 39 203.694 39.8938 197.179 41.3532C193.93 42.081 191.232 42.9613 189.322 43.9728C188.368 44.478 187.562 45.0411 186.983 45.6746C186.399 46.3137 186 47.0794 186 47.9516V61.0484C186 61.9206 186.399 62.6863 186.983 63.3254C187.562 63.9589 188.368 64.522 189.322 65.0272C191.232 66.0387 193.93 66.919 197.179 67.6468C203.694 69.1062 212.646 70 222.5 70C232.354 70 241.306 69.1062 247.821 67.6468C251.07 66.919 253.768 66.0387 255.678 65.0272C256.632 64.522 257.438 63.9589 258.017 63.3254C258.601 62.6863 259 61.9206 259 61.0484V47.9516Z" fill="black" stroke="black" stroke-width="2"/>
<path d="M222.5 56.9032C232.354 56.9032 241.306 56.0094 247.821 54.5501C251.07 53.8222 253.768 52.9419 255.678 51.9305C256.632 51.4252 257.438 50.8622 258.017 50.2286C258.601 49.5895 259 48.8239 259 47.9516C259 47.0793 258.601 46.3137 258.017 45.6746C257.438 45.0411 256.632 44.478 255.678 43.9728C253.768 42.9613 251.07 42.081 247.821 41.3532C241.306 39.8938 232.354 39 222.5 39C212.646 39 203.694 39.8938 197.179 41.3532C193.93 42.081 191.232 42.9613 189.322 43.9728C188.368 44.478 187.562 45.0411 186.983 45.6746C186.399 46.3137 186 47.0793 186 47.9516C186 48.8239 186.399 49.5895 186.983 50.2286C187.562 50.8622 188.368 51.4252 189.322 51.9305C191.232 52.9419 193.93 53.8222 197.179 54.5501C203.694 56.0094 212.646 56.9032 222.5 56.9032Z" fill="#59C3FF" stroke="black" stroke-width="2"/>
<path d="M189 56.6774C189 55.8219 188.606 55.074 188.035 54.4533C187.469 53.838 186.683 53.2926 185.754 52.804C183.895 51.826 181.271 50.9755 178.112 50.2725C171.779 48.8631 163.078 48 153.5 48C143.922 48 135.221 48.8631 128.888 50.2725C125.729 50.9755 123.105 51.826 121.246 52.804C120.317 53.2926 119.531 53.838 118.965 54.4533C118.394 55.074 118 55.8219 118 56.6774V69.3226C118 70.1781 118.394 70.926 118.965 71.5467C119.531 72.162 120.317 72.7074 121.246 73.196C123.105 74.174 125.729 75.0245 128.888 75.7274C135.221 77.1369 143.922 78 153.5 78C163.078 78 171.779 77.1369 178.112 75.7274C181.271 75.0245 183.895 74.174 185.754 73.196C186.683 72.7074 187.469 72.162 188.035 71.5467C188.606 70.926 189 70.1781 189 69.3226V56.6774Z" fill="black" stroke="black" stroke-width="2"/>
<path d="M153.5 65.3548C163.078 65.3548 171.779 64.4917 178.112 63.0823C181.271 62.3794 183.895 61.5289 185.754 60.5508C186.683 60.0623 187.469 59.5169 188.035 58.9016C188.606 58.2809 189 57.533 189 56.6774C189 55.8219 188.606 55.074 188.035 54.4533C187.469 53.838 186.683 53.2925 185.754 52.804C183.895 51.826 181.271 50.9755 178.112 50.2725C171.779 48.8631 163.078 48 153.5 48C143.922 48 135.221 48.8631 128.888 50.2725C125.729 50.9755 123.105 51.826 121.246 52.804C120.317 53.2925 119.531 53.838 118.965 54.4533C118.394 55.074 118 55.8219 118 56.6774C118 57.533 118.394 58.2809 118.965 58.9016C119.531 59.5169 120.317 60.0623 121.246 60.5508C123.105 61.5289 125.729 62.3794 128.888 63.0823C135.221 64.4917 143.922 65.3548 153.5 65.3548Z" fill="#59C3FF" stroke="black" stroke-width="2"/>
</svg>
